<svg id="Layer_1" data-name="Layer 1" xmlns="http://www.w3.org/2000/svg" viewBox="0 0 38.49 48.46"><defs><style>.cls-1{fill:#fff;}.cls-1,.cls-2{fill-rule:evenodd;}.cls-2{fill:none;stroke:#ccc;stroke-miterlimit:10;stroke-width:0.1px;}</style></defs><title>locked</title><path class="cls-1" d="M42.26,49H7.68a2,2,0,0,1-1.91-2V24.91a2,2,0,0,1,1.91-2h4.51V13.54A12.92,12.92,0,1,1,38,13.68v9.21h4.24a2,2,0,0,1,1.9,2V47a2,2,0,0,1-1.9,2Zm-18-11.18v2.75a1.14,1.14,0,0,0,2.27,0V37.82a3,3,0,1,0-2.27,0Zm8.33-24.14a7.55,7.55,0,0,0-7.43-7.57,7.43,7.43,0,0,0-7.43,7.43v9.35H32.49l0-9.21Z" transform="translate(-5.72 -0.59)"/><path class="cls-2" d="M42.26,49H7.68a2,2,0,0,1-1.91-2V24.91a2,2,0,0,1,1.91-2h4.51V13.54A12.92,12.92,0,1,1,38,13.68v9.21h4.24a2,2,0,0,1,1.9,2V47a2,2,0,0,1-1.9,2Zm-18-11.18v2.75a1.14,1.14,0,0,0,2.27,0V37.82a3,3,0,1,0-2.27,0Zm8.33-24.14a7.55,7.55,0,0,0-7.43-7.57,7.43,7.43,0,0,0-7.43,7.43v9.35H32.49l0-9.21Z" transform="translate(-5.72 -0.59)"/></svg>