<svg id="Layer_1" data-name="Layer 1" xmlns="http://www.w3.org/2000/svg" viewBox="0 0 43.57 45.47"><defs><style>.cls-1{fill:#fff;}.cls-1,.cls-2{fill-rule:evenodd;}.cls-2{fill:none;stroke:#ccc;stroke-miterlimit:10;stroke-width:0.15px;}</style></defs><title>search</title><path class="cls-1" d="M27.38,29.5a10.48,10.48,0,0,1-7.45,3.13A11,11,0,0,1,9.19,21.45,11,11,0,0,1,19.93,10.27,11,11,0,0,1,30.67,21.45a11.36,11.36,0,0,1-3,7.69l-.09.09a2.11,2.11,0,0,0-.25.27ZM41.06,41.22a3,3,0,0,0-.73-2.75l-8.54-9.14c-.06-.07-.13-.12-.19-.18a14.66,14.66,0,0,0,2.22-7.81C33.82,13.41,27.65,7,20,7S6.26,13.41,6.26,21.34,12.43,35.68,20,35.68a13.28,13.28,0,0,0,7.44-2.27s0,0,.05.05l8.54,9.14a2.88,2.88,0,0,0,2.61.89,21.07,21.07,0,0,1-13.39,4.83c-12,0-21.71-10.15-21.71-22.66S13.3,3,25.29,3,47,13.14,47,25.66a23.1,23.1,0,0,1-5.94,15.56Z" transform="translate(-3.51 -2.92)"/><path class="cls-2" d="M27.38,29.5a10.48,10.48,0,0,1-7.45,3.13A11,11,0,0,1,9.19,21.45,11,11,0,0,1,19.93,10.27,11,11,0,0,1,30.67,21.45a11.36,11.36,0,0,1-3,7.69l-.09.09a2.11,2.11,0,0,0-.25.27ZM41.06,41.22a3,3,0,0,0-.73-2.75l-8.54-9.14c-.06-.07-.13-.12-.19-.18a14.66,14.66,0,0,0,2.22-7.81C33.82,13.41,27.65,7,20,7S6.26,13.41,6.26,21.34,12.43,35.68,20,35.68a13.28,13.28,0,0,0,7.44-2.27s0,0,.05.05l8.54,9.14a2.88,2.88,0,0,0,2.61.89,21.07,21.07,0,0,1-13.39,4.83c-12,0-21.71-10.15-21.71-22.66S13.3,3,25.29,3,47,13.14,47,25.66a23.1,23.1,0,0,1-5.94,15.56Z" transform="translate(-3.51 -2.92)"/></svg>