<svg id="Layer_1" data-name="Layer 1" xmlns="http://www.w3.org/2000/svg" viewBox="0 0 46.51 39.27"><defs><style>.cls-1{fill:#fff;}.cls-1,.cls-2{fill-rule:evenodd;}.cls-2{fill:none;stroke:#ccc;stroke-miterlimit:10;stroke-width:0.15px;}</style></defs><title>video</title><path class="cls-1" d="M47.42,44.6H2.22A.58.58,0,0,1,1.64,44v-38a.58.58,0,0,1,.58-.58h45.2a.58.58,0,0,1,.58.58V44a.58.58,0,0,1-.58.58Zm-37.36-36A.58.58,0,0,0,9.48,8H4.29a.57.57,0,0,0-.57.58v4.14a.57.57,0,0,0,.57.58H9.48a.58.58,0,0,0,.58-.58V8.59Zm0,6.87a.58.58,0,0,0-.58-.57H4.29a.57.57,0,0,0-.57.57V19.6a.57.57,0,0,0,.57.58H9.48a.58.58,0,0,0,.58-.58V15.46Zm0,6.88a.58.58,0,0,0-.58-.58H4.29a.57.57,0,0,0-.57.58v4.14a.56.56,0,0,0,.57.57H9.48a.57.57,0,0,0,.58-.57V22.34Zm0,6.87a.57.57,0,0,0-.58-.57H4.29a.56.56,0,0,0-.57.57v4.14a.57.57,0,0,0,.57.58H9.48a.58.58,0,0,0,.58-.58V29.21Zm0,6.88a.58.58,0,0,0-.58-.58H4.29a.57.57,0,0,0-.57.58v4.14a.57.57,0,0,0,.57.57H9.48a.58.58,0,0,0,.58-.57V36.09ZM19.4,17.45V31.94L32,24.7,19.4,17.45ZM45.81,8.59A.58.58,0,0,0,45.23,8H40a.57.57,0,0,0-.57.58v4.14a.57.57,0,0,0,.57.58h5.19a.58.58,0,0,0,.58-.58V8.59Zm0,6.87a.58.58,0,0,0-.58-.57H40a.57.57,0,0,0-.57.57V19.6a.57.57,0,0,0,.57.58h5.19a.58.58,0,0,0,.58-.58V15.46Zm0,6.88a.58.58,0,0,0-.58-.58H40a.57.57,0,0,0-.57.58v4.14a.56.56,0,0,0,.57.57h5.19a.57.57,0,0,0,.58-.57V22.34Zm0,6.87a.57.57,0,0,0-.58-.57H40a.56.56,0,0,0-.57.57v4.14a.57.57,0,0,0,.57.58h5.19a.58.58,0,0,0,.58-.58V29.21Zm0,6.88a.58.58,0,0,0-.58-.58H40a.57.57,0,0,0-.57.58v4.14a.57.57,0,0,0,.57.57h5.19a.58.58,0,0,0,.58-.57V36.09Z" transform="translate(-1.56 -5.41)"/><path class="cls-2" d="M47.42,44.6H2.22A.58.58,0,0,1,1.64,44v-38a.58.58,0,0,1,.58-.58h45.2a.58.58,0,0,1,.58.58V44a.58.58,0,0,1-.58.58Zm-37.36-36A.58.58,0,0,0,9.48,8H4.29a.57.57,0,0,0-.57.58v4.14a.57.57,0,0,0,.57.58H9.48a.58.58,0,0,0,.58-.58V8.59Zm0,6.87a.58.58,0,0,0-.58-.57H4.29a.57.57,0,0,0-.57.57V19.6a.57.57,0,0,0,.57.58H9.48a.58.58,0,0,0,.58-.58V15.46Zm0,6.88a.58.58,0,0,0-.58-.58H4.29a.57.57,0,0,0-.57.58v4.14a.56.56,0,0,0,.57.57H9.48a.57.57,0,0,0,.58-.57V22.34Zm0,6.87a.57.57,0,0,0-.58-.57H4.29a.56.56,0,0,0-.57.57v4.14a.57.57,0,0,0,.57.58H9.48a.58.58,0,0,0,.58-.58V29.21Zm0,6.88a.58.58,0,0,0-.58-.58H4.29a.57.57,0,0,0-.57.58v4.14a.57.57,0,0,0,.57.57H9.48a.58.58,0,0,0,.58-.57V36.09ZM19.4,17.45V31.94L32,24.7,19.4,17.45ZM45.81,8.59A.58.58,0,0,0,45.23,8H40a.57.57,0,0,0-.57.58v4.14a.57.57,0,0,0,.57.58h5.19a.58.58,0,0,0,.58-.58V8.59Zm0,6.87a.58.58,0,0,0-.58-.57H40a.57.57,0,0,0-.57.57V19.6a.57.57,0,0,0,.57.58h5.19a.58.58,0,0,0,.58-.58V15.46Zm0,6.88a.58.58,0,0,0-.58-.58H40a.57.57,0,0,0-.57.58v4.14a.56.56,0,0,0,.57.57h5.19a.57.57,0,0,0,.58-.57V22.34Zm0,6.87a.57.57,0,0,0-.58-.57H40a.56.56,0,0,0-.57.57v4.14a.57.57,0,0,0,.57.58h5.19a.58.58,0,0,0,.58-.58V29.21Zm0,6.88a.58.58,0,0,0-.58-.58H40a.57.57,0,0,0-.57.58v4.14a.57.57,0,0,0,.57.57h5.19a.58.58,0,0,0,.58-.57V36.09Z" transform="translate(-1.56 -5.41)"/></svg>